<?xml version="1.0" standalone="no"?>
<!DOCTYPE svg PUBLIC "-//W3C//DTD SVG 20010904//EN"
 "http://www.w3.org/TR/2001/REC-SVG-20010904/DTD/svg10.dtd">
<svg version="1.0" xmlns="http://www.w3.org/2000/svg"
 width="512.000000pt" height="512.000000pt" viewBox="0 0 512.000000 512.000000"
 preserveAspectRatio="xMidYMid meet">
<metadata>
Created by potrace 1.16, written by Peter Selinger 2001-2019
</metadata>
<g transform="translate(0.000000,512.000000) scale(0.200000,-0.200000)"
fill="#000000" stroke="none">
<path d="M810 2241 c-109 -25 -211 -57 -325 -102 l-100 -39 -63 -104 c-150
-250 -245 -497 -298 -776 -16 -88 -32 -527 -20 -573 14 -58 342 -243 574 -323
l83 -29 19 25 c24 32 107 170 115 192 5 13 -16 27 -101 68 l-108 52 24 18 c23
17 25 17 94 -12 182 -75 361 -109 576 -109 215 0 394 34 576 109 68 29 71 29
93 11 l22 -18 -95 -46 c-52 -25 -99 -45 -105 -45 -6 0 -11 -5 -11 -10 0 -31
126 -230 146 -230 26 0 222 78 323 129 117 59 265 148 304 185 l27 25 0 200
c0 208 -7 286 -41 461 -44 220 -145 472 -281 697 l-62 102 -101 39 c-55 22
-122 47 -150 56 -64 20 -255 66 -276 66 -9 0 -28 -27 -48 -68 l-33 -68 -57 8
c-73 10 -389 10 -462 0 l-57 -8 -33 68 c-37 77 -33 76 -149 49z m142 -832
c145 -73 170 -297 46 -416 -92 -89 -216 -82 -301 17 -74 87 -85 200 -30 302
60 112 176 151 285 97z m853 -3 c48 -26 101 -93 116 -149 15 -55 6 -144 -19
-193 -26 -52 -89 -108 -137 -124 -148 -49 -307 111 -281 281 9 62 59 144 106
175 72 48 139 51 215 10z"/>
</g>
</svg>
