<?xml version="1.0" standalone="no"?>
<!DOCTYPE svg PUBLIC "-//W3C//DTD SVG 20010904//EN"
 "http://www.w3.org/TR/2001/REC-SVG-20010904/DTD/svg10.dtd">
<svg version="1.0" xmlns="http://www.w3.org/2000/svg"
 width="512.000000pt" height="512.000000pt" viewBox="0 0 512.000000 512.000000"
 preserveAspectRatio="xMidYMid meet">
<metadata>
Created by potrace 1.16, written by Peter Selinger 2001-2019
</metadata>
<g transform="translate(0.000000,512.000000) scale(0.100000,-0.100000)"
fill="#000000" stroke="none">
<path d="M3210 4084 c-360 -44 -594 -250 -666 -586 -8 -40 -18 -130 -21 -200
-5 -100 -9 -128 -21 -133 -8 -3 -66 -6 -127 -6 -394 0 -861 229 -1347 663 -48
43 -89 78 -92 78 -11 0 -46 -80 -66 -151 -73 -265 0 -529 208 -750 l84 -89
-70 0 c-72 0 -174 26 -244 61 l-38 19 -6 -26 c-9 -37 2 -129 26 -205 54 -175
258 -380 493 -495 31 -16 57 -31 57 -35 0 -9 -51 -18 -135 -25 -64 -5 -121 2
-169 22 -17 7 -19 4 -13 -27 11 -54 82 -189 129 -245 116 -136 261 -220 478
-278 l85 -23 -90 -59 c-218 -142 -521 -227 -857 -241 -82 -3 -148 -9 -148 -12
0 -10 178 -83 316 -131 701 -242 1382 -235 1921 20 717 340 1193 1127 1193
1971 0 114 3 149 13 149 30 0 175 98 237 159 63 63 128 156 118 167 -3 2 -39
-4 -79 -15 -89 -25 -239 -51 -286 -51 l-35 0 54 42 c80 64 143 130 186 196 36
55 71 147 61 157 -3 2 -54 -21 -114 -51 -126 -62 -238 -94 -337 -95 -67 -1
-69 0 -113 40 -84 77 -194 137 -307 166 -60 16 -216 26 -278 19z"/>
</g>
</svg>
